<mxfile host="app.diagrams.net" modified="2023-12-20T13:36:13.855Z" agent="Mozilla/5.0 (Windows NT 10.0; Win64; x64) AppleWebKit/537.36 (KHTML, like Gecko) Chrome/120.0.0.0 Safari/537.36" version="22.1.11" etag="Q1aBXBeQTIqIIyq3Y6GU" type="github">
  <diagram name="Halaman-1" id="wMkbcBnMJ55JkTa6t_N-">
    <mxGraphModel>
      <root>
        <mxCell id="0" />
        <mxCell id="1" parent="0" />
      </root>
    </mxGraphModel>
  </diagram>
</mxfile>
